<svg width="140" height="44" viewBox="0 0 140 44" fill="none" xmlns="http://www.w3.org/2000/svg">
<path d="M12.944 16.7635C14.7646 16.7635 16.5851 16.7635 18.3329 16.7635C20.2991 16.8362 21.6827 15.8907 22.6294 14.218C23.2847 13.0544 23.5032 11.7453 23.0663 10.4362C22.6294 9.19984 21.6098 8.47257 20.3719 8.47257C17.9688 8.47257 15.5656 8.47257 13.1625 8.47257C12.7256 8.47257 12.6528 8.61802 12.6528 8.98166C11.7061 14.4362 10.7594 19.8907 9.81271 25.2726C9.37578 27.9635 8.86602 30.6544 8.42909 33.3453C8.35627 33.7089 8.21063 33.8544 7.7737 33.8544C5.66186 33.8544 3.55003 33.8544 1.4382 33.8544C0.928445 33.8544 0.928445 33.7089 1.00127 33.2726C2.82181 22.8726 4.64236 12.5453 6.4629 2.1453C6.53573 1.6362 6.75419 1.56348 7.19112 1.56348C11.9974 1.56348 16.8764 1.56348 21.6827 1.56348C27.4356 1.56348 31.5864 6.4362 30.7126 12.1089C29.9844 16.5453 27.4356 19.5998 23.576 21.6362C23.1391 21.8544 22.9935 22.0726 23.2119 22.5817C24.6684 26.1453 26.1248 29.6362 27.5812 33.1998C27.7997 33.6362 27.7997 33.8544 27.1443 33.8544C24.8868 33.8544 22.6294 33.8544 20.3719 33.8544C20.0078 33.8544 19.7893 33.7817 19.6437 33.418C17.459 27.9635 15.2015 22.5817 12.944 17.1271C13.0169 17.0544 13.0169 16.9817 12.944 16.7635Z" fill="#B5B5B5"/>
<path d="M97.4174 24.8361C98.2912 23.0179 99.0923 21.3452 99.8933 19.7452C101.277 16.9088 102.661 14.0725 103.971 11.3088C104.117 11.0907 104.117 10.7997 104.554 10.7997C106.884 10.7997 109.215 10.7997 111.618 10.7997C110.962 11.9634 110.38 13.127 109.797 14.2179C106.374 20.6907 102.952 27.1634 99.5292 33.5634C98.2912 35.9634 96.762 38.0725 94.723 39.8907C92.1014 42.1452 88.97 43.0907 85.5474 43.0907C85.0376 43.0907 84.8192 43.0179 84.9648 42.3634C85.3289 40.6907 85.6202 38.9452 85.8387 37.1998C85.9115 36.6907 86.0572 36.4725 86.6397 36.4725C89.1157 36.4725 90.9362 35.3088 92.1742 33.1998C92.3927 32.8361 92.3927 32.5452 92.3198 32.1088C90.6449 25.2725 88.97 18.3634 87.2951 11.4543C87.2223 11.2361 87.1495 10.9452 87.1495 10.6543C89.6254 10.6543 92.0285 10.6543 94.4317 10.6543C94.7958 10.6543 94.7958 10.8725 94.8686 11.1634C95.6696 15.5997 96.5435 19.9634 97.3445 24.3997C97.3445 24.5452 97.3445 24.6179 97.4174 24.8361Z" fill="#B5B5B5"/>
<path d="M138.635 0.835938C136.45 0.835938 134.192 0.835938 132.008 0.835938C132.008 0.908665 132.008 0.908665 132.008 0.981393C131.571 3.6723 131.061 6.36321 130.624 9.12685C130.551 9.49048 130.333 9.49048 130.042 9.49048C128.512 9.49048 126.983 9.49048 125.381 9.49048C124.289 9.49048 123.124 9.49048 122.031 9.70866C115.04 11.3087 109.943 18.7996 111.035 25.8541C111.909 31.3814 116.133 33.7814 119.774 33.7814C124.07 33.7814 128.44 33.7814 132.736 33.7814C133.173 33.7814 133.246 33.6359 133.246 33.2723C133.683 30.7268 134.12 28.2541 134.557 25.7087C135.94 17.7087 137.324 9.70866 138.78 1.78139C138.78 1.63594 138.707 1.34503 138.999 1.2723C139.144 0.908665 138.999 0.835938 138.635 0.835938ZM129.241 16.8359C128.658 20.1814 128.075 23.4541 127.493 26.7996C127.42 27.2359 127.274 27.3814 126.837 27.3087C126.036 27.3087 125.308 27.3087 124.507 27.3087C123.706 27.3087 122.905 27.3814 122.177 27.3087C119.337 27.1632 117.589 24.9814 117.953 22.145C118.536 18.2178 121.085 16.0359 125.09 16.0359C126.255 16.0359 127.42 16.0359 128.512 16.0359C129.386 16.0359 129.386 16.0359 129.241 16.8359Z" fill="#B5B5B5"/>
<path d="M84.0182 17.5635C83.2172 13.4181 80.1586 10.5817 75.935 10.2181C73.6047 9.9999 71.2744 10.2181 69.381 10.1454C66.9051 10.1454 64.866 10.2181 62.7542 10.1454C62.026 10.1454 61.8075 10.4363 61.7347 11.0908C60.8608 16.2545 59.9142 21.4181 59.0403 26.5817C58.0936 31.8908 57.1469 37.1999 56.2731 42.509C56.2002 43.0181 56.2002 43.1635 56.7828 43.1635C58.6762 43.0908 60.6424 43.1635 62.5357 43.1635C62.9727 43.1635 63.1183 43.0908 63.1911 42.6544C63.6281 40.109 64.065 37.6363 64.5019 35.1635C64.5748 34.6544 64.7932 34.5817 65.2302 34.5817C66.5409 34.5817 67.7789 34.5817 69.0897 34.5817C70.4005 34.5817 71.6385 34.6544 72.9493 34.3635C80.1586 32.7635 85.4018 24.8363 84.0182 17.5635ZM70.4005 27.9635C69.0169 27.9635 67.6333 27.9635 66.2497 27.9635C65.8127 27.9635 65.6671 27.8908 65.8127 27.4545C66.3953 24.109 66.9779 20.7635 67.5605 17.3454C67.6333 16.8363 67.8517 16.6181 68.3615 16.6908C69.0897 16.7635 69.8907 16.6908 70.8374 16.6908C71.7113 16.7635 72.658 16.6181 73.6775 16.7635C75.8621 17.1999 77.1001 18.6545 77.1729 20.8363C77.3914 24.8363 74.4057 27.9635 70.4005 27.9635Z" fill="#B5B5B5"/>
<path d="M56.5643 10.1455C52.4135 10.1455 48.2626 10.1455 44.1118 10.1455C43.2379 10.1455 42.3641 10.2182 41.4902 10.4364C34.7906 12.1091 29.8387 19.2364 30.6397 26.0728C31.2951 31.3091 35.1547 34.6546 40.1066 34.4364C42 34.3637 43.8205 34.4364 45.7139 34.4364C47.8985 34.4364 50.156 34.4364 52.3407 34.4364C52.7776 34.4364 52.9232 34.3637 52.9961 33.9273C54.3068 26.2182 55.6905 18.5091 57.0741 10.8001C57.2197 10.2182 57.0741 10.1455 56.5643 10.1455ZM49.0637 17.1273C48.4811 20.5455 47.8257 24.0364 47.2431 27.4546C47.1703 27.7455 47.0975 27.891 46.7334 27.891C45.9323 27.891 45.1313 27.891 44.3303 27.891C43.6749 27.891 43.0923 27.891 42.4369 27.891C39.0143 27.891 37.1209 25.5637 37.7763 22.2182C38.4317 18.7273 40.9804 16.6182 44.5487 16.6182C45.9323 16.6182 47.2431 16.6182 48.6267 16.6182C49.0637 16.691 49.0637 16.8364 49.0637 17.1273Z" fill="#B5B5B5"/>
</svg>
