<svg width="151" height="44" viewBox="0 0 151 44" fill="none" xmlns="http://www.w3.org/2000/svg">
  <path d="M17.7369 27.8908C15.4066 27.8908 13.1491 27.8908 10.8188 27.8908C9.07106 27.8908 7.90591 27.2363 7.10487 25.6363C5.2115 21.9999 3.31813 18.4363 1.35194 14.7999C1.2063 14.509 0.987832 14.1454 0.91501 13.7817C0.696544 13.0545 0.987832 12.6181 1.71605 12.5454C1.86169 12.5454 2.00734 12.5454 2.08016 12.5454C6.231 12.5454 10.309 12.5454 14.4599 12.4727C15.9891 12.4727 17.0815 13.0545 17.8097 14.4363C19.7759 18.2908 21.8877 22.0727 23.9267 25.8545C23.9995 25.9999 24.0724 26.1454 24.1452 26.2908C24.5093 27.2363 24.218 27.6727 23.1985 27.7454C22.0333 27.8181 20.8682 27.7454 19.703 27.7454C19.0477 27.7454 18.4651 27.7454 17.8097 27.7454C17.7369 27.8181 17.7369 27.8181 17.7369 27.8908Z" fill="#B5B5B5" />
  <path d="M17.8097 12.3275C17.8097 11.6002 18.101 10.9457 18.6107 10.3639C21.0139 7.30932 23.417 4.25477 25.8201 1.27295L25.8929 1.20022C26.8396 0.0365885 27.4222 0.109316 28.1504 1.34568C28.9514 2.7275 29.6797 4.18204 30.4807 5.63659C31.7915 8.10932 33.1023 10.5093 34.4131 12.982C35.0685 14.2184 34.9956 15.382 34.1218 16.473C31.6458 19.5275 29.1699 22.6548 26.7668 25.782C25.9657 26.8002 25.2375 26.7275 24.6549 25.6366C22.4703 21.7093 20.3585 17.782 18.2466 13.8548C17.9553 13.3457 17.8097 12.8366 17.8097 12.3275Z" fill="#B5B5B5" />
  <path d="M54.9488 23.6002C54.9488 25.6366 54.9488 27.7457 54.9488 29.7821C54.9488 30.6548 54.876 30.6548 54.0749 30.5821C53.7836 30.5821 53.4195 30.5821 53.0554 30.5821C52.3272 30.6548 52.1816 30.5093 52.1816 29.7821C52.1816 27.4548 52.1816 25.1275 52.1816 22.8002C52.1816 21.8548 52.1087 21.7093 51.0892 21.7821C49.4872 21.8548 47.8851 21.7821 46.283 21.8548C45.482 21.8548 45.4091 21.7821 45.482 20.9821C45.482 20.6184 45.482 20.2548 45.482 19.9639C45.4091 19.3821 45.6276 19.1639 46.2102 19.1639C47.9579 19.1639 49.7056 19.1639 51.3805 19.1639C51.9631 19.1639 52.1816 19.0184 52.1816 18.3639C52.2544 16.473 51.599 14.9457 49.8513 14.0002C47.1569 12.6184 43.8799 14.6548 43.8799 17.7093C43.8799 21.7093 43.8799 25.7093 43.8799 29.7093C43.8799 30.5093 43.8071 30.5821 43.006 30.5821C41.2583 30.6548 41.0398 30.9457 41.1126 28.6184C41.2583 25.2002 41.1126 21.7093 41.1126 18.2912C41.1126 16.3275 41.6224 14.5093 43.006 13.0548C44.7537 11.1639 47.9579 10.3639 50.4338 11.3093C53.1282 12.3275 54.876 14.7275 54.876 17.4911C54.9488 19.5275 54.9488 21.5639 54.9488 23.6002Z" fill="#B5B5B5" />
  <path d="M74.902 26.5089C75.7759 27.3089 76.5769 27.818 77.6692 27.9634C79.8539 28.2543 82.0386 26.6543 82.3298 24.4725C82.6211 22.0725 80.9462 19.8907 78.6887 19.7453C76.0672 19.5271 74.101 21.3453 74.101 23.9634C74.101 27.818 74.101 31.6725 74.101 35.5271C74.101 36.3271 74.0281 36.3998 73.2271 36.3998C71.3337 36.4725 71.3337 36.6907 71.3337 34.5816C71.4066 31.018 71.3337 27.3816 71.4066 23.818C71.4794 20.1089 74.0281 17.418 77.9605 17.0543C81.0919 16.7634 84.5145 19.3816 85.0242 22.5816C85.4612 25.1998 84.6601 27.5998 82.4755 29.1998C80.3636 30.7998 77.8877 31.0907 75.4118 30.0725C75.1205 29.9271 74.9748 29.7816 74.9748 29.418C74.9748 28.5453 74.902 27.5998 74.902 26.5089Z" fill="#B5B5B5" />
  <path d="M60.1192 26.5092C60.993 27.2364 61.7941 27.7455 62.8136 27.9637C65.0711 28.3273 67.3285 26.6546 67.6198 24.3273C67.9111 22.0728 66.0177 19.891 63.7603 19.7455C61.2115 19.6001 59.2453 21.491 59.2453 24.0364C59.2453 27.8182 59.2453 31.6728 59.2453 35.4546C59.2453 36.4001 59.2453 36.4001 58.2986 36.4001C58.153 36.4001 58.0073 36.4001 57.8617 36.4001C56.6237 36.4728 56.4781 36.2546 56.4781 35.0182C56.5509 31.6728 56.4781 28.3273 56.5509 24.9819C56.5509 24.1819 56.5509 23.3819 56.6966 22.5819C57.5704 17.8546 62.9592 15.5273 67.1101 18.0728C70.1686 19.9637 71.1881 23.7455 69.586 26.8728C67.9839 30.0001 64.0516 31.4546 60.7746 30.0728C60.2648 30.0001 60.0464 29.7091 60.1192 29.2728C60.1192 28.4001 60.1192 27.5273 60.1192 26.5092Z" fill="#B5B5B5" />
  <path d="M134.907 30.6549C131.266 30.6549 128.353 27.964 127.989 24.3276C127.698 21.0549 130.174 17.8549 133.596 17.2003C136.582 16.6185 139.786 18.2185 141.097 20.8367C141.461 21.564 141.388 21.7094 140.66 22.1458C138.33 23.4549 136 24.764 133.742 26.1458C133.232 26.4367 132.941 26.364 132.723 25.8549C132.577 25.4912 132.358 25.1276 132.067 24.764C131.776 24.3276 131.849 24.0367 132.286 23.8185C133.815 22.9458 135.344 22.0731 136.946 21.2003C137.602 20.8367 137.602 20.764 136.946 20.4003C135.49 19.5276 133.451 19.7458 132.14 20.8367C130.756 22.0731 130.319 23.964 131.048 25.564C131.776 27.0912 133.014 27.964 134.762 27.964C136.509 27.964 137.82 27.164 138.548 25.564C138.767 25.0549 139.058 24.8367 139.641 24.9094C140.078 24.9822 140.515 24.9094 140.951 24.9094C141.461 24.9094 141.607 25.1276 141.461 25.564C140.806 28.5458 138.039 30.6549 134.907 30.6549Z" fill="#B5B5B5" />
  <path d="M118.085 21.7097C118.085 22.8734 118.085 24.037 118.085 25.2007C118.085 27.0188 119.323 28.3279 121.071 28.3279C122.746 28.3279 124.13 27.0188 124.13 25.2734C124.13 22.8734 124.13 20.4734 124.13 18.1461C124.13 17.2007 124.13 17.2007 125.076 17.2734C125.44 17.2734 125.877 17.2734 126.241 17.2734C126.678 17.2734 126.897 17.4188 126.897 17.8552C126.824 20.6188 127.042 23.3825 126.751 26.0734C126.533 28.2552 125.368 29.7825 123.329 30.5825C122.6 30.8734 122.382 31.237 122.382 32.037C122.455 33.2734 122.382 34.5825 122.382 35.8188C122.382 36.3279 122.236 36.5461 121.654 36.5461C121.217 36.5461 120.853 36.5461 120.416 36.5461C119.906 36.5461 119.542 36.2552 119.615 35.7461C119.76 34.437 119.542 33.0552 119.687 31.7461C119.76 31.237 119.615 30.8734 119.032 30.6552C116.483 29.637 115.245 27.8188 115.245 24.9825C115.245 22.6552 115.245 20.4007 115.245 18.0734C115.245 17.2007 115.318 17.1279 116.192 17.1279C116.41 17.1279 116.702 17.1279 116.92 17.1279C118.013 17.1279 118.013 17.1279 118.013 18.2188C118.085 19.3825 118.085 20.5461 118.085 21.7097Z" fill="#B5B5B5" />
  <path d="M30.772 27.3096C32.0099 27.3096 33.2479 27.3096 34.4131 27.3096C35.0685 27.3096 35.651 27.6005 35.9423 28.255C37.2531 30.5823 38.4911 32.9823 39.8019 35.3096C40.2388 36.1096 40.0203 36.3278 39.1465 36.4005C36.6705 36.4732 34.1946 36.4732 31.7187 36.5459C30.8448 36.5459 30.2622 36.1823 29.8253 35.455C28.5873 33.1278 27.3493 30.8732 26.1114 28.5459C25.7473 27.8187 25.8929 27.455 26.6939 27.455C28.0047 27.3823 29.3884 27.455 30.6991 27.455C30.772 27.3096 30.772 27.3096 30.772 27.3096Z" fill="#B5B5B5" />
  <path d="M29.534 36.5456C29.534 36.9093 29.3883 37.2729 29.1699 37.5638C27.7134 39.4547 26.257 41.3456 24.7277 43.1638C24.1452 43.8911 23.781 43.8184 23.3441 43.0911C22.1061 40.7638 20.8682 38.5093 19.5574 36.182C19.1204 35.4547 19.1933 34.7274 19.7758 34.0729C21.2323 32.2547 22.6159 30.4365 24.0723 28.6184C24.6549 27.8911 25.019 27.8911 25.5288 28.7638C26.7667 31.0911 28.0775 33.4184 29.3155 35.7456C29.4611 35.9638 29.534 36.2547 29.534 36.5456Z" fill="#B5B5B5" />
  <path d="M90.1946 30.5821C89.0294 30.5821 87.8643 30.5821 86.6263 30.5821C86.1166 30.5821 85.8981 30.4367 85.8981 29.9276C85.8981 29.5639 85.8253 29.2003 85.8253 28.8367C85.8253 28.0367 86.1166 27.8185 86.8448 27.8912C88.8838 28.1094 90.85 27.9639 92.889 27.9639C93.0346 27.9639 93.1803 27.9639 93.3259 27.9639C93.6172 27.9639 93.9813 27.8912 94.127 27.5276C94.1998 27.0912 93.9085 26.873 93.6172 26.7276C91.5054 25.7094 89.3207 24.7639 87.2817 23.7458C85.3155 22.8003 84.8058 20.3276 86.2622 18.6548C86.9904 17.7821 88.0099 17.5639 89.0294 17.4912C91.2141 17.4912 93.4716 17.4912 95.6562 17.4912C96.0932 17.4912 96.3116 17.6367 96.3116 18.073C96.3116 18.4367 96.3844 18.8003 96.3844 19.1639C96.4573 19.9639 96.166 20.1821 95.4378 20.1821C93.4716 20.1821 91.4326 20.1821 89.4664 20.1094C89.3207 20.1094 89.1023 20.1094 88.9566 20.1094C88.5925 20.1094 88.374 20.2548 88.3012 20.6185C88.2284 20.9821 88.4469 21.2003 88.7382 21.3458C89.9033 21.8548 90.9956 22.3639 92.1608 22.9458C93.1075 23.3821 94.0541 23.8185 94.928 24.2548C96.6029 25.0548 97.3311 26.4367 96.967 28.1094C96.6029 29.6367 95.3649 30.5821 93.5444 30.6548C92.3792 30.5821 91.2869 30.5821 90.1946 30.5821Z" fill="#B5B5B5" />
  <path d="M101.773 26.2912C101.773 27.4549 101.773 28.6185 101.773 29.8549C101.773 30.364 101.555 30.5821 101.045 30.5821C100.681 30.5821 100.317 30.6549 99.9527 30.6549C99.2245 30.6549 98.8604 30.364 98.9332 29.6367C99.1517 25.7821 99.006 21.9276 99.006 18.073C99.006 13.7821 101.919 10.873 106.215 10.873C107.016 10.873 107.817 10.873 108.619 10.873C109.055 10.873 109.201 11.0185 109.201 11.4549C109.201 11.8185 109.274 12.2549 109.274 12.6185C109.274 13.4185 108.983 13.7821 108.182 13.7094C107.381 13.6367 106.652 13.6367 105.851 13.6367C103.084 13.6367 101.118 16.1094 101.7 18.8003C101.846 19.3094 102.21 19.3821 102.647 19.3821C104.468 19.3821 106.215 19.3821 108.036 19.3821C108.91 19.3821 108.91 19.3821 108.91 20.2549C108.91 20.6185 108.91 21.0549 108.91 21.4185C108.91 21.8549 108.764 22.073 108.327 22.073C106.434 22.073 104.54 22.073 102.647 22.073C101.846 22.073 101.7 22.1458 101.7 22.9458C101.773 24.0367 101.773 25.2003 101.773 26.2912Z" fill="#B5B5B5" />
  <path d="M110.439 20.764C110.439 17.7094 110.439 14.6549 110.439 11.6003C110.439 11.0912 110.658 10.873 111.167 10.873C111.604 10.873 112.114 10.873 112.551 10.873C113.061 10.873 113.206 11.0912 113.206 11.6003C113.206 15.4549 113.206 19.3094 113.206 23.164C113.206 25.3458 113.206 27.5276 113.206 29.6367C113.206 30.5094 113.133 30.5821 112.26 30.5821C111.896 30.5821 111.531 30.5821 111.24 30.5821C110.658 30.6549 110.439 30.4367 110.439 29.8549C110.439 27.164 110.439 24.5458 110.439 21.8549C110.512 21.4912 110.512 21.1276 110.439 20.764C110.512 20.764 110.512 20.764 110.439 20.764Z" fill="#B5B5B5" />
  <path d="M145.758 18.4369C146.996 17.7096 148.161 17.2005 149.472 17.1278C150.345 17.055 150.491 17.1278 150.491 18.0005C150.491 18.3641 150.564 18.7278 150.564 19.0914C150.564 19.6005 150.273 19.8914 149.69 19.8187C147.869 19.7459 146.195 21.1278 145.903 23.0187C145.685 24.5459 145.83 26.1459 145.758 27.7459C145.758 28.4732 145.758 29.2005 145.758 29.9278C145.758 30.3641 145.612 30.5823 145.175 30.5823C144.665 30.5823 144.228 30.5823 143.719 30.5823C143.209 30.5823 142.99 30.4369 142.99 29.9278C142.99 25.9278 142.99 21.855 142.99 17.855C142.99 17.3459 143.136 17.1278 143.646 17.2005C144.083 17.2005 144.447 17.2732 144.884 17.2005C145.539 17.1278 145.83 17.3459 145.685 18.0005C145.685 18.0732 145.758 18.1459 145.758 18.4369Z" fill="#B5B5B5" />
</svg>