<?xml version="1.0" encoding="UTF-8"?>
<svg id="Layer_1" xmlns="http://www.w3.org/2000/svg" version="1.1" viewBox="0 0 118 24">
  <!-- Generator: Adobe Illustrator 29.5.1, SVG Export Plug-In . SVG Version: 2.1.0 Build 141)  -->
  <defs>
    <style>
      .st0 {
        fill: #ff5288;
      }

      .st1 {
        fill: #050f29;
      }

      .st2 {
        fill: #fff;
      }

      .st3 {
        fill: #ff9f00;
      }

      .st4 {
        fill: #ff7748;
      }
    </style>
  </defs>
  <path class="st1" d="M75.11,24c-.23-.04-.46-.08-.7-.11-2.24-.33-4.29-1.44-5.78-3.13-1.48-1.68-2.31-3.85-2.31-6.09-.02-4.11,0-8.22,0-12.33,0-1.28.9-2.22,2.2-2.3,1.11-.07,2.21.87,2.31,1.96.01.16.02.31.02.47v4.14c.08-.05.14-.08.2-.11,1.76-1.01,3.79-1.45,5.81-1.23,2.02.22,3.92,1.07,5.42,2.43,2.14,1.95,3.17,4.4,3.08,7.26-.13,4.37-3.46,8.13-7.83,8.88-.32.05-.64.08-.96.12-.03,0-.06.02-.08.04h-1.37ZM70.73,14.6c-.03,2.64,2.15,4.97,4.99,5.03.68.01,1.35-.11,1.98-.35.63-.25,1.21-.61,1.7-1.08.49-.46.87-1.02,1.14-1.64.27-.62.4-1.28.41-1.95.02-2.73-2.29-5-5.02-5.04-2.82-.04-5.22,2.23-5.2,5.03Z"/>
  <path class="st1" d="M53.38,24c-15.74-2-7.61-25.16,5.93-17.26.64-2.08,4.5-1.74,4.44.57,0,0,0,14.67,0,14.67.02,2.32-3.84,2.63-4.45.51-1.39.86-2.96,1.34-4.56,1.51h-1.36ZM48.99,14.61c-.03,6.59,10.46,6.44,10.21-.16-.14-6.46-10.27-6.26-10.21.16Z"/>
  <path class="st1" d="M107.92,24c-.18-.03-.35-.06-.53-.07-4.06-.35-7.56-3.42-8.39-7.36-1.06-5.04,2.04-9.9,7.11-11.1,2.56-.61,4.99-.19,7.25,1.17l.15.09c.13-.23.28-.46.45-.67.14-.18.32-.32.52-.43.2-.11.42-.17.65-.19.66-.06,1.34-.12,1.94.26.25.15.46.35.62.6.16.25.25.52.28.81v15.07c-.04.38-.19.74-.44,1.02s-.58.49-.95.59c-.38.08-.78.1-1.17.08-.29-.01-.58-.08-.84-.19-.54-.23-.86-.67-1.04-1.21-.02,0-.03.01-.05.02-1.31.83-2.81,1.34-4.36,1.47-.17.01-.33.04-.5.06h-.7ZM108.3,19.61c.67,0,1.34-.12,1.97-.36.63-.25,1.2-.62,1.68-1.09.48-.47.86-1.02,1.12-1.64.26-.61.4-1.27.4-1.94s-.14-1.33-.4-1.94c-.26-.61-.64-1.17-1.12-1.64-.97-.95-2.28-1.47-3.64-1.46-2.78,0-5.1,2.26-5.1,4.98,0,.67.12,1.33.38,1.95.25.62.63,1.18,1.1,1.65.47.47,1.04.85,1.66,1.1.62.25,1.29.38,1.96.38Z"/>
  <path class="st4" d="M.09,18.79c.04-.19.07-.38.11-.57.16-.82.56-1.57,1.15-2.16.86-.87,1.74-1.72,2.61-2.58.02-.02.04-.03.06-.05l6.42,6.33-.13.13c-.84.83-1.68,1.67-2.53,2.49-.75.73-1.74,1.16-2.78,1.22-2.5.2-4.72-1.94-4.88-4.14,0-.04-.02-.07-.04-.1v-.57Z"/>
  <path class="st2" d="M118,22.17h-.04V7.1s.02,0,.04,0v15.06Z"/>
  <path class="st1" d="M91.66,6.7c.61-.28,1.19-.57,1.8-.82,1.05-.4,2.16-.6,3.29-.59.79,0,1.35.5,1.39,1.28.03.6.03,1.21,0,1.81-.04.77-.59,1.25-1.38,1.27-1.95.05-3.44.9-4.42,2.56-.24.41-.37.88-.54,1.33-.03.1-.03.2-.02.3v8.08c0,.26-.04.52-.14.75-.15.36-.41.67-.74.88s-.72.32-1.11.31c-.37.02-.74-.01-1.11-.08-.41-.1-.78-.34-1.04-.67-.26-.33-.4-.74-.4-1.17V7.33c0-.5.19-.98.54-1.33.35-.36.83-.57,1.33-.59.39-.03.78,0,1.17.06.32.07.62.22.86.43.24.22.42.49.52.8Z"/>
  <path class="st4" d="M17.74,12.12l-6.14-6.05L17.77,0l6.14,6.05-6.16,6.07Z"/>
  <path class="st0" d="M29.13,12.73v1.69c0,.1-.04.19-.11.26-.8.8-1.6,1.59-2.41,2.37-.08.07-.18.11-.28.11-1.14,0-2.28,0-3.43,0-.1,0-.2-.04-.28-.11-.81-.78-1.61-1.57-2.41-2.37-.07-.08-.11-.18-.11-.28,0-1.12,0-2.24,0-3.36,0-.1.04-.2.12-.28.8-.8,1.6-1.59,2.41-2.37.08-.07.19-.12.3-.12,1.13,0,2.25,0,3.39,0,.11,0,.22.05.3.12.81.78,1.61,1.57,2.41,2.37.07.08.11.18.12.28,0,.57,0,1.13,0,1.7Z"/>
  <path class="st4" d="M25.15,19.65l6.42-6.32s.1.09.15.14l2.51,2.47c.81.81,1.26,1.9,1.26,3.04s-.45,2.23-1.26,3.04c-.7.7-1.5,1.23-2.5,1.4-1.49.26-2.8-.1-3.89-1.13-.89-.84-1.75-1.71-2.62-2.57-.02-.02-.05-.05-.07-.08Z"/>
  <path class="st3" d="M10.73,17.09c-1.18,0-2.31-.45-3.15-1.27-.41-.41-.74-.89-.97-1.42-.22-.53-.34-1.1-.34-1.68,0-.58.11-1.15.33-1.68.22-.53.55-1.02.96-1.43.84-.83,1.97-1.3,3.15-1.3.59,0,1.17.11,1.71.33.54.22,1.04.55,1.45.96.41.41.74.89.97,1.42.22.53.34,1.11.34,1.68s-.12,1.15-.34,1.68c-.22.53-.55,1.02-.97,1.42-.84.82-1.97,1.28-3.15,1.28h0Z"/>
</svg>