<?xml version="1.0" encoding="UTF-8"?>
<svg id="Layer_1" xmlns="http://www.w3.org/2000/svg" version="1.1" viewBox="0 0 36 24">
  <!-- Generator: Adobe Illustrator 29.5.1, SVG Export Plug-In . SVG Version: 2.1.0 Build 141)  -->
  <defs>
    <style>
      .st0 {
        fill: #f4774b;
      }

      .st1 {
        fill: #ef5488;
      }

      .st2 {
        fill: #f99f1b;
      }
    </style>
  </defs>
  <path class="st0" d="M.29,18.95c.04-.19.07-.38.11-.57.16-.82.56-1.57,1.15-2.16.86-.87,1.74-1.72,2.61-2.58.02-.02.04-.03.06-.05l6.42,6.33-.13.13c-.84.83-1.68,1.67-2.53,2.49-.75.73-1.74,1.16-2.78,1.22-2.5.2-4.72-1.94-4.88-4.14,0-.04-.02-.07-.04-.1v-.57Z"/>
  <path class="st0" d="M17.94,12.27l-6.14-6.05L17.97.15l6.14,6.05-6.16,6.07Z"/>
  <path class="st1" d="M29.33,12.88v1.69c0,.1-.04.19-.11.26-.8.8-1.6,1.59-2.41,2.37-.08.07-.18.11-.28.11-1.14,0-2.28,0-3.43,0-.1,0-.2-.04-.28-.11-.81-.78-1.61-1.57-2.41-2.37-.07-.08-.11-.18-.11-.28,0-1.12,0-2.24,0-3.36,0-.1.04-.2.12-.28.8-.8,1.6-1.59,2.41-2.37.08-.07.19-.12.3-.12,1.13,0,2.25,0,3.39,0,.11,0,.22.05.3.12.81.78,1.61,1.57,2.41,2.37.07.08.11.18.12.28,0,.57,0,1.13,0,1.7Z"/>
  <path class="st0" d="M25.35,19.8l6.42-6.32s.1.09.15.14l2.51,2.47c.81.81,1.26,1.9,1.26,3.04s-.45,2.23-1.26,3.04c-.7.7-1.5,1.23-2.5,1.4-1.49.26-2.8-.1-3.89-1.13-.89-.84-1.75-1.71-2.62-2.57-.02-.02-.05-.05-.07-.08Z"/>
  <path class="st2" d="M10.93,17.24c-1.18,0-2.31-.45-3.15-1.27-.41-.41-.74-.89-.97-1.42-.22-.53-.34-1.1-.34-1.68,0-.58.11-1.15.33-1.68.22-.53.55-1.02.96-1.43.84-.83,1.97-1.3,3.15-1.3.59,0,1.17.11,1.71.33.54.22,1.04.55,1.45.96.41.41.74.89.97,1.42.22.53.34,1.11.34,1.68s-.12,1.15-.34,1.68c-.22.53-.55,1.02-.97,1.42-.84.82-1.97,1.28-3.15,1.28h0Z"/>
</svg>