<svg width="124" height="59" viewBox="0 0 124 59" fill="none" xmlns="http://www.w3.org/2000/svg">
<path d="M94.1509 13.5089C93.4227 15.3998 92.476 17.1453 91.4565 18.818C89.199 22.3816 86.4318 25.4362 82.5722 27.3271C75.727 30.7453 69.173 30.0907 62.9831 25.5089C59.9246 23.2543 57.4487 20.418 54.9727 17.5089C52.7881 14.8907 50.6762 12.1271 48.2003 9.72707C46.3798 7.90889 44.4136 6.30889 42.0104 5.36344C38.5878 4.05435 35.4565 4.63616 32.5436 6.74525C29.9948 8.56344 28.0286 10.9634 26.2081 13.5089C24.2419 16.2725 22.567 19.2543 21.1106 22.3089C20.7465 23.0362 20.3095 23.3271 19.5085 23.2543C18.2705 23.1816 16.9597 23.2543 15.7218 23.2543C15.6489 23.1089 15.7218 22.9634 15.7218 22.8907C18.1977 17.3634 21.0378 12.0543 25.043 7.3998C26.9363 5.21798 28.9753 3.25435 31.5241 1.87253C36.476 -0.745654 41.355 -0.527472 46.1613 2.23616C48.9285 3.83616 51.186 6.01798 53.2978 8.34525C55.9922 11.2543 58.3954 14.4543 61.0169 17.4362C62.6918 19.2543 64.4396 21.0725 66.5514 22.4543C68.8089 23.9089 71.212 24.7816 73.9064 24.8543C76.3824 24.9271 78.7127 24.1271 80.8245 22.8907C84.1743 20.9998 86.5046 18.0907 88.2523 14.7453C89.0534 13.2907 88.8349 13.3634 90.5098 13.4362C91.8934 13.5089 92.9857 13.5089 94.1509 13.5089Z" fill="#B5B5B5"/>
<path d="M62.0364 50.6721C62.0364 51.9084 62.0364 53.1448 62.0364 54.3812C62.0364 54.6721 61.9636 54.963 61.6723 55.1084C59.342 56.8539 56.7932 57.9448 53.8075 57.8721C50.8218 57.7993 48.1274 56.9994 46.0884 54.7448C41.5735 49.8721 43.0299 40.1266 51.2588 38.2357C54.5358 37.4357 57.5943 37.9448 60.4343 39.8357C60.58 39.9812 60.7984 40.0539 60.9441 40.1994C61.3082 40.4903 61.3082 40.7812 61.0169 41.0721C60.3615 41.7266 59.7789 42.5266 59.1964 43.2539C58.7594 43.763 58.6138 43.8357 58.0312 43.3994C56.4291 42.0903 54.6086 41.5812 52.5696 42.0175C50.1664 42.5266 48.8557 44.1993 48.2731 46.5266C47.3264 50.4539 50.1664 54.0903 54.2445 54.0175C55.4096 54.0175 56.4291 53.6539 57.4486 53.1448C57.7399 52.9993 57.8856 52.7812 57.8856 52.4175C57.8856 51.8357 57.8856 51.2539 57.8856 50.6721C57.8856 50.3084 57.7399 50.163 57.3758 50.163C56.3563 50.163 55.3368 50.163 54.3173 50.163C53.6619 50.163 53.5891 50.0903 53.5891 49.4357C53.5891 48.6357 53.5891 47.8357 53.5891 47.0357C53.5891 46.5994 53.7347 46.4539 54.1716 46.4539C56.5748 46.4539 59.0507 46.4539 61.4538 46.4539C61.8908 46.4539 62.0364 46.5994 62.0364 47.0357C61.9636 48.1994 62.0364 49.4357 62.0364 50.6721Z" fill="#B5B5B5"/>
<path d="M65.7504 44.4909C65.7504 42.6 65.7504 40.7091 65.7504 38.8181C65.7504 38.3818 65.896 38.2363 66.3329 38.2363C67.3525 38.2363 68.4448 38.2363 69.4643 38.2363C69.9012 38.2363 70.0469 38.3818 70.0469 38.8181C70.0469 42.0909 70.0469 45.3636 70.0469 48.5636C70.0469 49.2182 70.0469 49.9454 70.1925 50.6C70.7023 53.1454 72.45 54.0181 74.7803 53.8727C76.8921 53.7272 78.2029 52.2727 78.2757 50.0909C78.4214 46.6 78.3485 43.1818 78.2757 39.6909C78.2757 38.3091 78.2757 38.3091 79.5865 38.3091C80.4604 38.3091 81.2614 38.3091 82.1353 38.3091C82.4994 38.3091 82.645 38.4545 82.645 38.8181C82.5722 42.6 82.7907 46.4545 82.5722 50.2363C82.4994 51.5454 82.2809 52.7818 81.6255 53.9454C80.6789 55.8363 79.0768 57.0727 77.0378 57.5818C75.2172 58.0909 73.3238 58.0909 71.5033 57.6545C68.2263 56.8545 66.1873 54.5272 65.896 51.1818C65.6047 48.8545 65.8232 46.6727 65.7504 44.4909Z" fill="#B5B5B5"/>
<path d="M23.2224 44.7091C23.2224 42.7454 23.2224 40.8545 23.2224 38.8909C23.2224 38.3818 23.3681 38.2363 23.8778 38.2363C24.8973 38.3091 25.9168 38.3091 26.9363 38.2363C27.4461 38.2363 27.5917 38.3818 27.5917 38.8909C27.5917 42.3818 27.5917 45.9454 27.5917 49.4363C27.5917 50.8909 27.9558 52.2 29.1938 53.1454C31.6697 55.0363 35.3108 53.5818 35.7478 50.5272C35.8206 50.0181 35.8934 49.5091 35.8934 49.0727C35.8934 45.7272 35.8934 42.3818 35.8934 39.0363C35.8934 38.3818 35.9662 38.3091 36.6216 38.3091C37.6411 38.3091 38.6606 38.3091 39.753 38.3091C40.1171 38.3091 40.2627 38.4545 40.2627 38.8181C40.2627 42.6727 40.3355 46.4545 40.1899 50.3091C40.1171 53.0727 39.0976 55.4727 36.476 56.8545C33.4175 58.4545 30.1405 58.4545 27.082 56.8545C24.8973 55.7636 23.8778 53.8 23.5137 51.4727C23.2952 49.8727 23.2952 48.2 23.3681 46.6C23.2952 45.8727 23.2952 45.2909 23.2224 44.7091C23.2952 44.7091 23.2952 44.7091 23.2224 44.7091Z" fill="#B5B5B5"/>
<path d="M104.273 38.2363C105.074 38.2363 105.875 38.2363 106.676 38.2363C107.332 38.2363 107.987 38.2363 108.642 38.2363C109.079 38.2363 109.298 38.3818 109.516 38.7454C110.827 41 112.138 43.1818 113.449 45.3636C113.74 45.8727 113.74 45.8727 114.104 45.3636C115.269 43.4727 116.507 41.5818 117.527 39.6181C118.255 38.3818 118.983 38.0181 120.367 38.2363C121.313 38.3818 122.26 38.2363 123.207 38.2363C123.207 38.4545 123.061 38.6 122.988 38.7454C120.804 42.1636 118.619 45.5818 116.362 49.0727C115.997 49.6545 115.852 50.1636 115.852 50.8181C115.852 52.7818 115.852 54.7454 115.852 56.7818C115.852 57.5818 115.852 57.5818 115.051 57.5818C114.104 57.5818 113.085 57.5818 112.138 57.5818C111.628 57.5818 111.482 57.4363 111.482 56.9272C111.482 54.8181 111.482 52.7818 111.482 50.6727C111.482 50.1636 111.337 49.7272 111.046 49.2909C108.788 45.8 106.531 42.2363 104.273 38.6727C104.346 38.5272 104.273 38.4545 104.273 38.2363Z" fill="#B5B5B5"/>
<path d="M52.5696 17.5815C43.7581 17.5815 35.0195 17.5815 26.1353 17.5815C26.4265 17.0724 26.7178 16.636 26.9363 16.2724C27.446 15.4724 28.0286 14.6724 28.5384 13.8724C28.7568 13.5087 29.121 13.3633 29.5579 13.3633C33.2718 13.3633 36.9857 13.3633 40.7724 13.3633C43.2484 13.3633 45.6515 13.3633 48.1275 13.3633C48.7829 13.3633 49.147 13.5087 49.5839 14.0178C50.5306 15.2542 51.5501 16.4178 52.5696 17.5815Z" fill="#B5B5B5"/>
<path d="M103.254 56.9267C101.943 55.0358 100.632 53.0722 99.3212 51.1813C99.0299 50.8176 99.1027 50.5995 99.5396 50.3813C103.472 48.7085 103.982 43.6904 102.016 40.854C100.778 39.0358 98.8114 38.3085 96.6268 38.2358C93.5683 38.1631 90.5826 38.2358 87.524 38.1631C87.0143 38.1631 86.8687 38.3813 86.8687 38.8176C86.8687 39.9085 86.8687 40.9995 86.8687 42.0904C86.8687 46.9631 86.8687 51.8358 86.8687 56.7085C86.8687 57.4358 86.9415 57.4358 87.6697 57.4358C88.6164 57.4358 89.5631 57.4358 90.5826 57.4358C91.1651 57.4358 91.3108 57.2904 91.3108 56.7085C91.3108 55.1085 91.3108 53.4358 91.3108 51.8358C91.3108 51.3995 91.5293 51.254 91.9662 51.254C92.4759 51.254 92.9857 51.3267 93.4954 51.254C94.2237 51.1813 94.7334 51.3995 95.0975 51.9813C96.1899 53.654 97.355 55.3267 98.4473 56.9995C98.593 57.2176 98.7386 57.3631 99.0299 57.3631C100.559 57.3631 102.088 57.3631 103.763 57.3631C103.545 57.2904 103.399 57.0722 103.254 56.9267ZM96.3355 47.4722C94.8062 47.6904 93.2042 47.5449 91.6021 47.5449C91.238 47.5449 91.238 47.3267 91.238 47.1085C91.238 46.3085 91.238 45.5813 91.238 44.7813C91.238 44.4176 91.238 43.9813 91.238 43.6176C91.238 43.254 91.238 42.8176 91.238 42.454C91.238 42.2358 91.238 42.0176 91.5292 42.0176C93.1313 42.0176 94.8062 41.8722 96.4083 42.0904C97.9376 42.3813 98.7386 43.254 98.7386 44.7085C98.6658 46.3085 97.7919 47.3267 96.3355 47.4722Z" fill="#B5B5B5"/>
<path d="M21.6203 57.0727C18.9259 50.9636 16.2315 44.8545 13.5371 38.7454C13.3914 38.3818 13.1001 38.2363 12.736 38.2363C11.7894 38.2363 10.8427 38.2363 9.89598 38.2363C9.38623 38.2363 9.09494 38.4545 8.87648 38.8909C7.71133 41.5091 6.54618 44.1272 5.38103 46.8181C3.92459 50.1636 2.39533 53.5091 0.938895 56.9272C0.647608 57.5818 0.720429 57.6545 1.37583 57.6545C2.39533 57.6545 3.48766 57.6545 4.50717 57.6545C5.01692 57.6545 5.23538 57.4363 5.45385 57C5.89078 55.9818 6.32771 54.9636 6.69182 53.9454C6.91029 53.4363 7.20157 53.2909 7.71133 53.2909C10.0416 53.2909 12.3719 53.2909 14.7022 53.2909C15.212 53.2909 15.5033 53.4363 15.6489 53.9454C16.0858 55.0363 16.5228 56.0545 16.9597 57.1454C17.1053 57.5091 17.3238 57.6545 17.7607 57.6545C18.3433 57.6545 18.9259 57.6545 19.5085 57.6545C20.091 57.6545 20.6736 57.6545 21.2562 57.6545C21.6931 57.6545 21.7659 57.5091 21.6203 57.0727ZM13.3914 49.5091C11.8622 49.5091 10.4057 49.5091 8.87648 49.5091C8.58519 49.5091 8.58519 49.4363 8.65801 49.1454C9.45905 47.2545 10.2601 45.3636 11.134 43.4C12.0078 45.3636 12.8089 47.3272 13.6099 49.1454C13.6827 49.4363 13.6099 49.5091 13.3914 49.5091Z" fill="#B5B5B5"/>
</svg>
